<svg id="Layer_1" data-name="Layer 1" xmlns="http://www.w3.org/2000/svg" width="2986.4602" height="946.1331" viewBox="0 0 2986.4602 946.1331">
  <defs>
    <style>
      .cls-1 {
        fill: #3a3c39;
      }

      .cls-2 {
        fill: #f45656;
      }

      .cls-3 {
        fill: #fff;
      }

      .cls-4 {
        fill: #c93d3d;
      }

      .cls-5 {
        fill: #0097fb;
      }
    </style>
  </defs>
  <g>
    <polygon class="cls-1" points="893.413 103.085 893.413 274.895 824.693 274.895 824.693 206.175 790.333 206.175 790.333 171.815 824.693 171.815 824.693 137.445 859.053 137.445 859.053 103.085 893.413 103.085"/>
    <g>
      <rect x="687.2422" y="103.0889" width="34.3595" height="34.3595"/>
      <rect class="cls-2" x="34.3625" y="721.6147" width="34.36" height="34.3601"/>
      <polygon class="cls-2" points="549.793 240.535 549.793 343.625 584.153 343.625 584.153 412.345 618.513 412.345 618.513 515.435 652.883 515.435 652.883 652.885 618.513 652.885 618.513 755.975 137.453 755.975 137.453 721.615 68.723 721.615 68.723 584.165 103.083 584.165 103.083 515.435 171.813 515.435 171.813 481.075 549.793 481.075 549.793 446.715 515.433 446.715 515.433 377.985 481.063 377.985 481.063 240.535 515.433 240.535 515.433 171.815 549.793 171.815 549.793 103.085 584.153 103.085 584.153 68.725 618.513 68.725 618.513 34.375 755.963 34.375 755.963 206.175 584.153 206.175 584.153 240.535 549.793 240.535"/>
    </g>
    <polygon points="893.413 103.085 893.413 274.895 824.693 274.895 824.693 240.535 859.053 240.535 859.053 103.085 893.413 103.085"/>
    <polygon class="cls-1" points="859.053 137.445 859.053 240.535 824.693 240.535 824.693 206.175 790.333 206.175 790.333 171.815 824.693 171.815 824.693 137.445 859.053 137.445"/>
    <polygon class="cls-3" points="859.053 103.085 859.053 137.445 824.693 137.445 824.693 171.815 790.333 171.815 790.333 206.175 755.963 206.175 755.963 103.085 859.053 103.085"/>
    <polygon points="859.053 68.725 859.053 103.085 755.963 103.085 755.963 34.375 790.333 34.375 790.333 68.725 859.053 68.725"/>
    <rect x="652.8826" y="515.4347" width="34.36" height="137.45"/>
    <rect x="618.5126" y="652.8847" width="34.37" height="103.0901"/>
    <rect class="cls-4" x="618.5126" y="515.4347" width="34.37" height="137.45"/>
    <rect x="618.5126" y="412.3448" width="34.37" height="103.09"/>
    <rect x="618.5126" y="0.0048" width="137.45" height="34.3699"/>
    <rect class="cls-4" x="584.1526" y="412.3448" width="34.36" height="103.09"/>
    <rect x="584.1526" y="343.6247" width="34.36" height="68.7201"/>
    <rect x="584.1526" y="206.1747" width="240.54" height="34.3601"/>
    <rect class="cls-4" x="584.1526" y="171.8147" width="171.81" height="34.36"/>
    <rect class="cls-4" x="549.7925" y="343.6247" width="34.36" height="68.7201"/>
    <rect x="549.7925" y="240.5348" width="34.36" height="103.0898"/>
    <polygon class="cls-2" points="549.793 240.535 515.433 240.535 515.433 171.815 549.793 171.815 549.793 103.085 584.153 103.085 584.153 68.725 618.513 68.725 618.513 34.375 755.963 34.375 755.963 171.815 584.153 171.815 584.153 206.175 549.793 206.175 549.793 240.535"/>
    <polygon class="cls-2" points="618.513 515.435 618.513 652.885 584.153 652.885 584.153 721.615 137.453 721.615 137.453 687.245 68.723 687.245 68.723 584.165 103.083 584.165 103.083 515.435 171.813 515.435 171.813 481.075 549.793 481.075 549.793 446.715 515.433 446.715 515.433 377.985 481.063 377.985 481.063 240.535 515.433 240.535 515.433 343.625 549.793 343.625 549.793 412.345 584.153 412.345 584.153 515.435 618.513 515.435"/>
    <rect x="549.7925" y="68.7248" width="34.36" height="34.36"/>
    <rect x="584.1526" y="34.3747" width="34.36" height="34.3501"/>
    <rect class="cls-4" x="549.7925" y="206.1747" width="34.36" height="34.3601"/>
    <rect class="cls-4" x="515.4326" y="240.5348" width="34.36" height="103.0898"/>
    <rect x="515.4326" y="103.0848" width="34.36" height="68.73"/>
    <polygon points="549.793 446.715 549.793 481.075 171.813 481.075 171.813 446.715 481.063 446.715 481.063 377.985 515.433 377.985 515.433 446.715 549.793 446.715"/>
    <rect x="481.0626" y="171.8147" width="34.37" height="68.7201"/>
    <rect x="446.7026" y="240.5348" width="34.36" height="137.45"/>
    <rect x="137.4526" y="755.9748" width="481.06" height="34.36"/>
    <rect x="103.0826" y="481.0748" width="68.73" height="34.36"/>
    <rect x="68.7225" y="721.6147" width="68.73" height="34.3601"/>
    <polygon class="cls-4" points="618.513 652.885 618.513 755.975 137.453 755.975 137.453 721.615 68.723 721.615 68.723 687.245 137.453 687.245 137.453 652.885 171.813 652.885 171.813 687.245 206.163 687.245 206.163 721.615 515.433 721.615 515.433 549.795 549.793 549.795 549.793 721.615 584.153 721.615 584.153 652.885 618.513 652.885"/>
    <rect x="68.7225" y="515.4347" width="34.36" height="68.73"/>
    <rect class="cls-2" x="34.3625" y="721.6147" width="34.36" height="34.3601"/>
    <rect x="34.3625" y="584.1647" width="34.36" height="137.45"/>
    <polygon points="68.723 755.975 68.723 790.335 0.003 790.335 0.003 721.615 34.363 721.615 34.363 755.975 68.723 755.975"/>
    <g>
      <rect x="687.2422" y="103.0889" width="34.3595" height="34.3595"/>
      <polygon class="cls-4" points="515.433 515.435 515.433 549.795 343.613 549.795 343.613 584.165 274.893 584.165 274.893 549.795 206.163 549.795 206.163 515.435 515.433 515.435"/>
      <rect class="cls-4" x="240.5374" y="584.1636" width="34.3595" height="34.3595"/>
      <polygon class="cls-1" points="309.253 618.525 309.253 652.885 206.163 652.885 206.163 549.795 274.893 549.795 274.893 584.165 240.533 584.165 240.533 618.525 309.253 618.525"/>
      <rect class="cls-1" x="206.1625" y="687.2448" width="103.09" height="34.3699"/>
      <rect class="cls-4" x="206.1625" y="652.8847" width="103.09" height="34.3601"/>
      <rect class="cls-1" x="171.8079" y="652.8826" width="34.3595" height="34.3595"/>
      <rect class="cls-4" x="171.8126" y="549.7948" width="34.35" height="103.0898"/>
    </g>
  </g>
  <g class="cls-5">
    <path d="M1231.2786,734.9319c-42.4,38.4-86.4,55.2-142.4014,55.2-112.8,0-196-83.2-196-196.001,0-116.8,81.6-200,196.8008-200,55.2,0,100.8,19.2,148,61.6l-68,61.6006c-22.4-22.4-46.4-32.8-76-32.8-56.001,0-97.6006,45.6-97.6006,106.4,0,63.2,42.4,108.8,101.6006,108.8,26.3994,0,45.6-8,72-31.2Z"/>
    <path d="M1288.8753,777.3323V243.7307h101.6005V777.3323Z"/>
    <path d="M1598.468,302.13c0,31.2-24,55.2-56,55.2-32.8007,0-56.8007-24-56.8007-56,0-32.8,24-56.8,56.8007-56.8S1598.468,268.5305,1598.468,302.13Zm-5.6,475.2022H1491.2678V406.9309h101.6006Z"/>
    <path d="M1795.261,406.9309v45.6006c30.3994-40.8008,66.3994-58.4,121.6-58.4,39.2,0,72.001,9.6,103.2012,30.3994,56,38.4,84,94.4,84,168.8008,0,118.4-73.6006,196.8008-184.8008,196.8008-53.6006,0-92.8-16.8-124-52.8V942.9329H1693.66V406.9309Zm0,189.6006c0,67.2,39.2,112.001,98.4,112.001s101.6-47.2,101.6-112.8008c0-68-40.8-116.001-98.4-116.001C1836.8606,479.7307,1795.261,527.7317,1795.261,596.5315Z"/>
    <path d="M2282.4544,406.9309v45.6006c30.3994-40.8008,66.3994-58.4,121.6-58.4,39.2,0,72.0009,9.6,103.2011,30.3994,56,38.4,84,94.4,84,168.8008,0,118.4-73.6005,196.8008-184.8007,196.8008-53.6006,0-92.8-16.8-124-52.8V942.9329H2180.8538V406.9309Zm0,189.6006c0,67.2,39.2,112.001,98.4,112.001s101.6-47.2,101.6-112.8008c0-68-40.8-116.001-98.4-116.001C2324.054,479.7307,2282.4544,527.7317,2282.4544,596.5315Z"/>
    <path d="M2878.46,406.9309h108L2777.6594,946.1331h-108.8l69.6-177.6006-129.6-361.6016h108l75.2,220.001Z"/>
  </g>
</svg>
